<svg width="24" height="22" viewBox="0 0 24 22" fill="none" xmlns="http://www.w3.org/2000/svg">
<path d="M12.6918 1.59304L14.6758 6.32992C15.0002 7.10444 15.7289 7.63387 16.5657 7.70305L21.6838 8.12616C22.3469 8.18097 22.6156 9.0079 22.1114 9.44199L18.2194 12.7926C17.583 13.3405 17.3047 14.1971 17.4975 15.0144L18.6767 20.0128C18.8295 20.6603 18.1261 21.1714 17.5574 20.826L13.1681 18.16C12.4504 17.724 11.5496 17.724 10.8319 18.16L6.4426 20.826C5.87394 21.1714 5.17052 20.6603 5.32329 20.0128L6.50248 15.0144C6.69529 14.1971 6.41695 13.3405 5.78058 12.7926L1.88862 9.44199C1.38441 9.0079 1.65309 8.18097 2.31616 8.12616L7.43429 7.70305C8.27115 7.63387 8.99984 7.10444 9.32424 6.32992L11.3082 1.59304C11.5653 0.979361 12.4347 0.979361 12.6918 1.59304Z" stroke="#CBCBCB" stroke-width="1.5"/>
</svg>
