<svg width="24" height="22" viewBox="0 0 24 22" fill="none" xmlns="http://www.w3.org/2000/svg">
<path d="M10.6165 1.3033C11.1305 0.075941 12.8695 0.0759415 13.3835 1.3033L15.3675 6.04018C15.5838 6.55653 16.0696 6.90948 16.6275 6.9556L21.7456 7.37871C23.0718 7.48834 23.6091 9.14219 22.6007 10.0104L18.7087 13.361C18.2845 13.7263 18.0989 14.2974 18.2275 14.8422L19.4067 19.8406C19.7122 21.1357 18.3054 22.1578 17.168 21.467L12.7787 18.801C12.3002 18.5104 11.6998 18.5104 11.2213 18.801L6.83195 21.467C5.69464 22.1578 4.28779 21.1357 4.59332 19.8406L5.77252 14.8422C5.90106 14.2974 5.7155 13.7263 5.29125 13.361L1.39929 10.0104C0.390861 9.14219 0.928232 7.48834 2.25437 7.37871L7.3725 6.9556C7.93041 6.90948 8.4162 6.55653 8.63247 6.04018L10.6165 1.3033Z" fill="#FFC700"/>
</svg>
