<svg width="451" height="88" viewBox="0 0 451 88" fill="none" xmlns="http://www.w3.org/2000/svg">
<path d="M5.88 64.54C8.64 64.54 10.66 67.1 10.66 71.14C10.66 75.22 8.64 77.78 5.88 77.78C3.1 77.78 1.1 75.22 1.1 71.14C1.1 67.1 3.1 64.54 5.88 64.54ZM5.88 66.96C4.54 66.96 3.64 68.42 3.64 71.14C3.64 73.9 4.54 75.38 5.88 75.38C7.24 75.38 8.12 73.9 8.12 71.14C8.12 68.42 7.24 66.96 5.88 66.96ZM13.7 63.24H16.34V81.82H13.7V63.24ZM9.88 69.92H14.82V72.06H9.88V69.92ZM31.8984 63.26H34.5784V81.84H31.8984V63.26ZM20.3184 75.2H21.9184C25.8184 75.2 28.0184 75.12 30.4984 74.66L30.7384 76.84C28.2384 77.34 25.8984 77.42 21.9184 77.42H20.3184V75.2ZM20.3184 64.9H29.2584V67.04H22.9584V76.04H20.3184V64.9ZM44.9969 70.08H48.0369V72.22H44.9969V70.08ZM50.9769 63.26H53.5169V81.78H50.9769V63.26ZM47.1969 63.54H49.6969V80.94H47.1969V63.54ZM41.7569 64.56C44.2169 64.56 45.7969 67.1 45.7969 71.28C45.7969 75.48 44.2169 78.02 41.7569 78.02C39.3169 78.02 37.7569 75.48 37.7569 71.28C37.7569 67.1 39.3169 64.56 41.7569 64.56ZM41.7569 67.06C40.7569 67.06 40.1769 68.46 40.1769 71.28C40.1769 74.12 40.7569 75.5 41.7569 75.5C42.7969 75.5 43.3769 74.12 43.3769 71.28C43.3769 68.46 42.7969 67.06 41.7569 67.06ZM65.3353 69.04H70.2153V71.18H65.3353V69.04ZM60.2953 64.68H62.4553V67.36C62.4553 72.02 60.8753 76.32 57.3953 78.06L55.7353 75.92C58.8953 74.46 60.2953 70.88 60.2953 67.36V64.68ZM60.8553 64.68H62.9753V67.36C62.9753 70.88 64.3153 74.26 67.3753 75.62L65.7953 77.74C62.3153 76.06 60.8553 71.98 60.8553 67.36V64.68ZM68.8953 63.24H71.5353V81.82H68.8953V63.24ZM79.3747 71.56H96.1347V73.7H79.3747V71.56ZM81.4147 68.18H94.2947V70.3H81.4147V68.18ZM81.4147 63.72H94.1147V65.86H84.0547V69.36H81.4147V63.72ZM81.3547 79.46H94.3347V81.58H81.3547V79.46ZM81.3547 75.02H94.1547V77.12H83.9947V80.64H81.3547V75.02ZM110.513 63.26H113.193V81.78H110.513V63.26ZM105.053 65.18H107.693C107.693 70.84 105.773 75.48 99.1931 78.66L97.8131 76.54C103.133 73.98 105.053 70.62 105.053 65.66V65.18ZM98.7931 65.18H106.313V67.28H98.7931V65.18ZM133.833 63.26H136.513V74.44H133.833V63.26ZM124.193 75.22H136.513V81.58H124.193V75.22ZM133.893 77.32H126.793V79.48H133.893V77.32ZM121.333 64.9H132.473V67H121.333V64.9ZM126.913 67.56C129.693 67.56 131.553 68.88 131.553 70.9C131.553 72.94 129.693 74.22 126.913 74.22C124.153 74.22 122.293 72.94 122.293 70.9C122.293 68.88 124.153 67.56 126.913 67.56ZM126.913 69.52C125.633 69.52 124.813 69.96 124.813 70.9C124.813 71.82 125.633 72.28 126.913 72.28C128.213 72.28 129.013 71.82 129.013 70.9C129.013 69.96 128.213 69.52 126.913 69.52ZM125.573 63.12H128.253V66.3H125.573V63.12ZM139.531 72.4H156.291V74.52H139.531V72.4ZM141.551 68.78H154.451V70.92H141.551V68.78ZM141.551 63.94H154.291V66.04H144.211V69.56H141.551V63.94ZM141.511 79.32H154.571V81.46H141.511V79.32ZM141.511 75.92H144.151V79.86H141.511V75.92ZM175.59 63.26H178.27V72.62H175.59V63.26ZM165.91 73.44H178.27V78.46H168.55V80.32H165.95V76.54H175.63V75.46H165.91V73.44ZM165.95 79.6H178.73V81.66H165.95V79.6ZM167.21 63.68H169.41V65.08C169.41 68.5 167.69 71.6 164.07 72.7L162.79 70.6C165.89 69.66 167.21 67.34 167.21 65.08V63.68ZM167.75 63.68H169.93V65.08C169.93 67.28 171.23 69.44 174.25 70.3L172.97 72.36C169.41 71.32 167.75 68.42 167.75 65.08V63.68ZM181.269 73.62H198.049V75.74H181.269V73.62ZM188.269 74.98H190.909V81.78H188.269V74.98ZM183.209 64.16H196.049V71.64H183.209V64.16ZM193.429 66.26H185.829V69.54H193.429V66.26ZM203.827 66.18H205.927V68.26C205.927 72.44 204.167 76.7 200.767 78.3L199.267 76.2C202.327 74.76 203.827 71.3 203.827 68.26V66.18ZM204.387 66.18H206.487V68.26C206.487 71.06 207.927 74.34 210.967 75.74L209.507 77.84C206.107 76.26 204.387 72.2 204.387 68.26V66.18ZM199.987 65.04H210.147V67.22H199.987V65.04ZM211.507 63.26H214.187V81.78H211.507V63.26ZM213.587 70.32H216.867V72.52H213.587V70.32ZM218.086 70.44H234.846V72.54H218.086V70.44ZM220.146 67.36H232.866V69.44H220.146V67.36ZM220.146 63.6H232.706V65.72H222.786V69.16H220.146V63.6ZM219.986 73.58H232.786V78.48H222.626V80.08H220.006V76.6H230.166V75.58H219.986V73.58ZM220.006 79.6H233.266V81.64H220.006V79.6ZM242.424 64.48C245.344 64.48 247.524 66.38 247.524 69.04C247.524 71.72 245.344 73.62 242.424 73.62C239.524 73.62 237.304 71.72 237.304 69.04C237.304 66.38 239.524 64.48 242.424 64.48ZM242.424 66.76C241.004 66.76 239.924 67.6 239.924 69.04C239.924 70.5 241.004 71.34 242.424 71.34C243.844 71.34 244.924 70.5 244.924 69.04C244.924 67.6 243.844 66.76 242.424 66.76ZM249.264 63.24H251.924V81.82H249.264V63.24ZM236.864 78.06L236.544 75.92C239.804 75.92 244.344 75.88 248.244 75.3L248.444 77.22C244.424 78.02 240.064 78.06 236.864 78.06ZM266.843 68.84H269.483V71.42H266.843V68.84ZM266.803 63.42H269.083V63.78C269.083 67.1 266.323 69.32 261.543 69.92L260.643 67.88C264.923 67.48 266.803 65.72 266.803 63.78V63.42ZM267.243 63.42H269.523V63.78C269.523 65.72 271.423 67.48 275.683 67.88L274.783 69.92C270.003 69.32 267.243 67.1 267.243 63.78V63.42ZM259.823 70.8H276.563V72.9H259.823V70.8ZM261.743 73.84H274.543V78.62H264.383V80.22H261.763V76.78H271.923V75.8H261.743V73.84ZM261.763 79.66H275.023V81.66H261.763V79.66ZM282.722 65.16H284.922V66.32C284.922 69.82 283.222 72.98 279.662 74.12L278.302 72.06C281.382 71.06 282.722 68.64 282.722 66.32V65.16ZM283.262 65.16H285.442V66.32C285.442 68.52 286.762 70.78 289.782 71.74L288.422 73.8C284.942 72.7 283.262 69.66 283.262 66.32V65.16ZM290.942 63.26H293.622V74.42H290.942V63.26ZM280.982 75.24H293.622V81.78H290.942V77.36H280.982V75.24ZM279.002 64.34H289.082V66.44H279.002V64.34ZM308.54 63.28H311.2V77.12H308.54V63.28ZM310.44 68.92H313.66V71.1H310.44V68.92ZM296.62 65.2H307.52V67.28H296.62V65.2ZM302.08 67.94C304.74 67.94 306.62 69.4 306.62 71.52C306.62 73.64 304.74 75.08 302.08 75.08C299.4 75.08 297.52 73.64 297.52 71.52C297.52 69.4 299.4 67.94 302.08 67.94ZM302.08 69.96C300.9 69.96 300.08 70.52 300.08 71.52C300.08 72.52 300.9 73.06 302.08 73.06C303.26 73.06 304.08 72.52 304.08 71.52C304.08 70.52 303.26 69.96 302.08 69.96ZM300.74 63.24H303.4V66.22H300.74V63.24ZM299.26 79.34H311.86V81.46H299.26V79.34ZM299.26 76.08H301.92V80.26H299.26V76.08ZM320.78 65.18H335.86V67.28H320.78V65.18ZM320 75.24H336.76V77.38H320V75.24ZM327.02 77.12H329.68V81.8H327.02V77.12ZM328.36 68C332.34 68 334.7 69.12 334.7 71.18C334.7 73.22 332.34 74.36 328.36 74.36C324.36 74.36 322 73.22 322 71.18C322 69.12 324.36 68 328.36 68ZM328.36 69.98C325.94 69.98 324.76 70.34 324.76 71.18C324.76 72.02 325.94 72.38 328.36 72.38C330.78 72.38 331.96 72.02 331.96 71.18C331.96 70.34 330.78 69.98 328.36 69.98ZM327.02 63.24H329.68V66.58H327.02V63.24ZM351.138 63.26H353.818V81.78H351.138V63.26ZM345.678 65.18H348.318C348.318 70.84 346.398 75.48 339.818 78.66L338.438 76.54C343.758 73.98 345.678 70.62 345.678 65.66V65.18ZM339.418 65.18H346.938V67.28H339.418V65.18ZM356.797 70.44H373.557V72.54H356.797V70.44ZM358.857 67.36H371.577V69.44H358.857V67.36ZM358.857 63.6H371.417V65.72H361.497V69.16H358.857V63.6ZM358.697 73.58H371.497V78.48H361.337V80.08H358.717V76.6H368.877V75.58H358.697V73.58ZM358.717 79.6H371.977V81.64H358.717V79.6Z" fill="#BBBBBB"/>
<path d="M12.375 35.6875C12.125 38.1875 10.75 39.5417 8.25 39.75C7.08333 39.75 6.0625 39.375 5.1875 38.625C4.35417 37.8333 3.9375 36.8542 3.9375 35.6875V6.0625C3.97917 4.89583 4.41667 3.9375 5.25 3.1875C6.08333 2.39583 7.08333 2 8.25 2H11.3125H19H34.4375C34.6875 2 34.9375 2.02083 35.1875 2.0625H35.5625C38.4792 2.14583 40.875 2.8125 42.75 4.0625C44.625 5.3125 45.9792 6.75 46.8125 8.375C47.6458 9.95833 48.0625 11.5625 48.0625 13.1875C48.0625 14.8542 47.6458 16.5 46.8125 18.125C46.0208 19.7083 44.6667 21.125 42.75 22.375C40.875 23.625 38.4792 24.2917 35.5625 24.375H24.5625C24.8958 26.4583 25.5833 28 26.625 29C27.625 30 28.8958 30.5 30.4375 30.5H43.9375C45.1042 30.5417 46.0625 30.9792 46.8125 31.8125C47.6042 32.6458 48 33.6458 48 34.8125C47.9583 35.9375 47.5417 36.8958 46.75 37.6875C46 38.4375 45.0625 38.8333 43.9375 38.875H29.3125C26.2292 38.9167 23.4375 37.7083 20.9375 35.25C18.4375 32.7917 16.9167 29.875 16.375 26.5C15.625 22.75 15.25 20.6458 15.25 20.1875C15.25 19.0208 15.6458 18.0417 16.4375 17.25C17.2708 16.4167 18.2708 16 19.4375 16H35.9375C36.7292 15.9583 37.375 15.7917 37.875 15.5C38.4167 15.1667 38.8125 14.8125 39.0625 14.4375C39.3125 14.0208 39.4375 13.6042 39.4375 13.1875C39.4375 12.7708 39.3125 12.375 39.0625 12C38.8125 11.5833 38.4167 11.2292 37.875 10.9375C37.375 10.6042 36.7292 10.4167 35.9375 10.375H19H14C12.9167 10.4167 12.375 10.9583 12.375 12V35.6875ZM66.4375 2H69.3125H90.5625C91.7292 2.04167 92.6875 2.47917 93.4375 3.3125C94.2292 4.14583 94.625 5.14583 94.625 6.3125C94.4167 8.8125 93.0625 10.1667 90.5625 10.375H68.5625C66.9792 10.4583 65.6667 11.0625 64.625 12.1875C63.5833 13.3125 62.8125 14.6042 62.3125 16.0625C61.8542 17.4792 61.625 18.9375 61.625 20.4375C61.625 21.9375 61.8542 23.4167 62.3125 24.875C62.8125 26.2917 63.5833 27.5625 64.625 28.6875C65.6667 29.8125 66.9792 30.4167 68.5625 30.5H90.5625C91.7292 30.5417 92.6875 30.9792 93.4375 31.8125C94.2292 32.6458 94.625 33.6458 94.625 34.8125C94.5833 35.9375 94.1667 36.8958 93.375 37.6875C92.625 38.4375 91.6875 38.8333 90.5625 38.875H67.625H66.4375C63.5208 38.7083 61.1042 37.6042 59.1875 35.5625C57.3125 33.4792 55.9583 31.125 55.125 28.5C54.3333 25.875 53.9375 23.1875 53.9375 20.4375C53.9375 17.6875 54.3542 15 55.1875 12.375C56.0208 9.75 57.375 7.41667 59.25 5.375C61.125 3.29167 63.5208 2.16667 66.4375 2ZM94.5 20.1875C94.5 21.3542 94.0833 22.3333 93.25 23.125C92.4583 23.9583 91.4792 24.375 90.3125 24.375H71.4375C70.2708 24.375 69.2708 23.9792 68.4375 23.1875C67.6458 22.3542 67.25 21.3542 67.25 20.1875C67.25 19.0208 67.6458 18.0208 68.4375 17.1875C69.2708 16.3958 70.2708 16 71.4375 16H90.3125C91.4792 16 92.4583 16.4167 93.25 17.25C94.0833 18.0417 94.5 19.0208 94.5 20.1875ZM112.812 35.5625C110.896 32.6875 108.979 28.9167 107.062 24.25L100.188 6.5C99.9792 6.04167 99.8542 5.54167 99.8125 5C99.7292 3.83333 100.062 2.83333 100.812 2C101.604 1.16667 102.604 0.75 103.812 0.75C105.104 0.75 106.062 1.04167 106.688 1.625C107.354 2.16667 107.896 2.875 108.312 3.75L114.25 20C114.917 21.7083 115.562 23.3333 116.188 24.875C116.854 26.375 117.583 27.75 118.375 29C119.167 30.25 120.062 30.9167 121.062 31C122.021 30.9167 122.875 30.25 123.625 29C124.458 27.75 125.188 26.375 125.812 24.875C126.479 23.3333 127.146 21.7083 127.812 20L133.625 3.75C134.042 2.875 134.562 2.16667 135.188 1.625C135.854 1.04167 136.875 0.75 138.25 0.75C139.458 0.75 140.438 1.16667 141.188 2C141.979 2.83333 142.333 3.83333 142.25 5C142.208 5.54167 142.083 6.04167 141.875 6.5L135 24.25C133.083 29 131.167 32.7917 129.25 35.625C127.375 38.4167 124.646 39.8333 121.062 39.875C117.438 39.8333 114.688 38.3958 112.812 35.5625ZM147.375 34.6875C147.375 33.5208 147.771 32.5417 148.562 31.75C149.396 30.9167 150.396 30.5 151.562 30.5H163.562V10.375H151.562C150.396 10.375 149.417 9.95833 148.625 9.125C147.792 8.33333 147.375 7.35417 147.375 6.1875C147.375 5.02083 147.771 4.04167 148.562 3.25C149.396 2.41667 150.396 2 151.562 2H183.938C185.104 2 186.104 2.39583 186.938 3.1875C187.729 4.02083 188.125 5.02083 188.125 6.1875C188.125 7.35417 187.708 8.35417 186.875 9.1875C186.083 9.97917 185.104 10.375 183.938 10.375H172V30.5H183.938C185.104 30.5 186.104 30.8958 186.938 31.6875C187.729 32.5208 188.125 33.5208 188.125 34.6875C188.125 35.8542 187.708 36.8542 186.875 37.6875C186.083 38.4792 185.104 38.875 183.938 38.875H151.562C150.396 38.875 149.417 38.4583 148.625 37.625C147.792 36.8333 147.375 35.8542 147.375 34.6875ZM206.188 2H209.062H230.312C231.479 2.04167 232.438 2.47917 233.188 3.3125C233.979 4.14583 234.375 5.14583 234.375 6.3125C234.167 8.8125 232.812 10.1667 230.312 10.375H208.312C206.729 10.4583 205.417 11.0625 204.375 12.1875C203.333 13.3125 202.562 14.6042 202.062 16.0625C201.604 17.4792 201.375 18.9375 201.375 20.4375C201.375 21.9375 201.604 23.4167 202.062 24.875C202.562 26.2917 203.333 27.5625 204.375 28.6875C205.417 29.8125 206.729 30.4167 208.312 30.5H230.312C231.479 30.5417 232.438 30.9792 233.188 31.8125C233.979 32.6458 234.375 33.6458 234.375 34.8125C234.333 35.9375 233.917 36.8958 233.125 37.6875C232.375 38.4375 231.438 38.8333 230.312 38.875H207.375H206.188C203.271 38.7083 200.854 37.6042 198.938 35.5625C197.062 33.4792 195.708 31.125 194.875 28.5C194.083 25.875 193.688 23.1875 193.688 20.4375C193.688 17.6875 194.104 15 194.938 12.375C195.771 9.75 197.125 7.41667 199 5.375C200.875 3.29167 203.271 2.16667 206.188 2ZM234.25 20.1875C234.25 21.3542 233.833 22.3333 233 23.125C232.208 23.9583 231.229 24.375 230.062 24.375H211.188C210.021 24.375 209.021 23.9792 208.188 23.1875C207.396 22.3542 207 21.3542 207 20.1875C207 19.0208 207.396 18.0208 208.188 17.1875C209.021 16.3958 210.021 16 211.188 16H230.062C231.229 16 232.208 16.4167 233 17.25C233.833 18.0417 234.25 19.0208 234.25 20.1875ZM253.875 40.3125C252.458 40.3125 251.042 40.0625 249.625 39.5625C248.25 39.0625 246.917 38.3333 245.625 37.375C244.333 36.375 243.208 35.0625 242.25 33.4375C241.292 31.8125 240.771 29.875 240.688 27.625V5.0625C240.688 3.89583 241.104 2.9375 241.938 2.1875C242.812 1.39583 243.833 1 245 1C247.5 1.20833 248.854 2.5625 249.062 5.0625V27.125C249.104 28.125 249.312 28.9792 249.688 29.6875C250.062 30.3542 250.479 30.8958 250.938 31.3125C251.396 31.6875 251.854 31.9792 252.312 32.1875C252.812 32.3542 253.312 32.4375 253.812 32.4375C254.312 32.4375 254.812 32.3542 255.312 32.1875C255.812 31.9792 256.292 31.6875 256.75 31.3125C257.208 30.8958 257.625 30.3542 258 29.6875C258.375 28.9792 258.562 28.125 258.562 27.125V5.0625C258.562 3.89583 258.979 2.9375 259.812 2.1875C260.688 1.39583 261.708 1 262.875 1C265.375 1.20833 266.75 2.5625 267 5.0625V27.125C267.042 28.125 267.25 28.9583 267.625 29.625C268 30.3333 268.417 30.8958 268.875 31.3125C269.333 31.6875 269.792 31.9792 270.25 32.1875C270.75 32.3542 271.25 32.4375 271.75 32.4375C272.25 32.4375 272.75 32.3542 273.25 32.1875C273.75 31.9792 274.229 31.6875 274.688 31.3125C275.146 30.8958 275.562 30.3542 275.938 29.6875C276.312 28.9792 276.5 28.125 276.5 27.125V5.0625C276.5 3.89583 276.917 2.9375 277.75 2.1875C278.625 1.39583 279.646 1 280.812 1C283.312 1.20833 284.688 2.5625 284.938 5.0625V27.625C284.938 29.875 284.438 31.8125 283.438 33.4375C282.479 35.0625 281.354 36.375 280.062 37.375C278.812 38.3333 277.479 39.0625 276.062 39.5625C274.688 40.0625 273.271 40.3125 271.812 40.3125C270.396 40.3125 268.979 40.0625 267.562 39.5625C266.188 39.0625 264.854 38.3125 263.562 37.3125C263.312 37.1458 263.083 36.9583 262.875 36.75C262.625 36.9583 262.396 37.1458 262.188 37.3125C260.896 38.3125 259.542 39.0625 258.125 39.5625C256.75 40.0625 255.333 40.3125 253.875 40.3125Z" fill="black"/>
</svg>
